# Tiled2Unity generated file. Do not modify by hand.
# Wavefront file for 'fireMap_mesh_0001.obj'

# Vertices (Count = 544)
v 0 -33 0
v -1 -33 0
v -1 -32 0
v 0 -32 0
v -1 -33 0
v -2 -33 0
v -2 -32 0
v -1 -32 0
v -6 -33 0
v -7 -33 0
v -7 -32 0
v -6 -32 0
v -7 -33 0
v -8 -33 0
v -8 -32 0
v -7 -32 0
v -8 -33 0
v -9 -33 0
v -9 -32 0
v -8 -32 0
v -9 -33 0
v -10 -33 0
v -10 -32 0
v -9 -32 0
v -10 -33 0
v -11 -33 0
v -11 -32 0
v -10 -32 0
v -11 -33 0
v -12 -33 0
v -12 -32 0
v -11 -32 0
v -16 -33 0
v -17 -33 0
v -17 -32 0
v -16 -32 0
v -17 -33 0
v -18 -33 0
v -18 -32 0
v -17 -32 0
v -18 -33 0
v -19 -33 0
v -19 -32 0
v -18 -32 0
v -19 -33 0
v -20 -33 0
v -20 -32 0
v -19 -32 0
v -25 -33 0
v -26 -33 0
v -26 -32 0
v -25 -32 0
v -26 -33 0
v -27 -33 0
v -27 -32 0
v -26 -32 0
v -27 -33 0
v -28 -33 0
v -28 -32 0
v -27 -32 0
v -28 -33 0
v -29 -33 0
v -29 -32 0
v -28 -32 0
v -34 -33 0
v -35 -33 0
v -35 -32 0
v -34 -32 0
v -35 -33 0
v -36 -33 0
v -36 -32 0
v -35 -32 0
v -36 -33 0
v -37 -33 0
v -37 -32 0
v -36 -32 0
v -37 -33 0
v -38 -33 0
v -38 -32 0
v -37 -32 0
v -43 -33 0
v -44 -33 0
v -44 -32 0
v -43 -32 0
v -44 -33 0
v -45 -33 0
v -45 -32 0
v -44 -32 0
v -45 -33 0
v -46 -33 0
v -46 -32 0
v -45 -32 0
v -46 -33 0
v -47 -33 0
v -47 -32 0
v -46 -32 0
v 0 -34 0
v -1 -34 0
v -1 -33 0
v 0 -33 0
v -1 -34 0
v -2 -34 0
v -2 -33 0
v -1 -33 0
v -6 -34 0
v -7 -34 0
v -7 -33 0
v -6 -33 0
v -7 -34 0
v -8 -34 0
v -8 -33 0
v -7 -33 0
v -8 -34 0
v -9 -34 0
v -9 -33 0
v -8 -33 0
v -9 -34 0
v -10 -34 0
v -10 -33 0
v -9 -33 0
v -10 -34 0
v -11 -34 0
v -11 -33 0
v -10 -33 0
v -11 -34 0
v -12 -34 0
v -12 -33 0
v -11 -33 0
v -16 -34 0
v -17 -34 0
v -17 -33 0
v -16 -33 0
v -17 -34 0
v -18 -34 0
v -18 -33 0
v -17 -33 0
v -18 -34 0
v -19 -34 0
v -19 -33 0
v -18 -33 0
v -19 -34 0
v -20 -34 0
v -20 -33 0
v -19 -33 0
v -25 -34 0
v -26 -34 0
v -26 -33 0
v -25 -33 0
v -26 -34 0
v -27 -34 0
v -27 -33 0
v -26 -33 0
v -27 -34 0
v -28 -34 0
v -28 -33 0
v -27 -33 0
v -28 -34 0
v -29 -34 0
v -29 -33 0
v -28 -33 0
v -34 -34 0
v -35 -34 0
v -35 -33 0
v -34 -33 0
v -35 -34 0
v -36 -34 0
v -36 -33 0
v -35 -33 0
v -36 -34 0
v -37 -34 0
v -37 -33 0
v -36 -33 0
v -37 -34 0
v -38 -34 0
v -38 -33 0
v -37 -33 0
v -43 -34 0
v -44 -34 0
v -44 -33 0
v -43 -33 0
v -44 -34 0
v -45 -34 0
v -45 -33 0
v -44 -33 0
v -45 -34 0
v -46 -34 0
v -46 -33 0
v -45 -33 0
v -46 -34 0
v -47 -34 0
v -47 -33 0
v -46 -33 0
v 0 -35 0
v -1 -35 0
v -1 -34 0
v 0 -34 0
v -1 -35 0
v -2 -35 0
v -2 -34 0
v -1 -34 0
v -7 -35 0
v -8 -35 0
v -8 -34 0
v -7 -34 0
v -8 -35 0
v -9 -35 0
v -9 -34 0
v -8 -34 0
v -9 -35 0
v -10 -35 0
v -10 -34 0
v -9 -34 0
v -10 -35 0
v -11 -35 0
v -11 -34 0
v -10 -34 0
v -16 -35 0
v -17 -35 0
v -17 -34 0
v -16 -34 0
v -17 -35 0
v -18 -35 0
v -18 -34 0
v -17 -34 0
v -18 -35 0
v -19 -35 0
v -19 -34 0
v -18 -34 0
v -19 -35 0
v -20 -35 0
v -20 -34 0
v -19 -34 0
v -25 -35 0
v -26 -35 0
v -26 -34 0
v -25 -34 0
v -26 -35 0
v -27 -35 0
v -27 -34 0
v -26 -34 0
v -27 -35 0
v -28 -35 0
v -28 -34 0
v -27 -34 0
v -28 -35 0
v -29 -35 0
v -29 -34 0
v -28 -34 0
v -34 -35 0
v -35 -35 0
v -35 -34 0
v -34 -34 0
v -35 -35 0
v -36 -35 0
v -36 -34 0
v -35 -34 0
v -36 -35 0
v -37 -35 0
v -37 -34 0
v -36 -34 0
v -37 -35 0
v -38 -35 0
v -38 -34 0
v -37 -34 0
v -43 -35 0
v -44 -35 0
v -44 -34 0
v -43 -34 0
v -44 -35 0
v -45 -35 0
v -45 -34 0
v -44 -34 0
v -45 -35 0
v -46 -35 0
v -46 -34 0
v -45 -34 0
v -46 -35 0
v -47 -35 0
v -47 -34 0
v -46 -34 0
v 0 -36 0
v -1 -36 0
v -1 -35 0
v 0 -35 0
v -1 -36 0
v -2 -36 0
v -2 -35 0
v -1 -35 0
v -7 -36 0
v -8 -36 0
v -8 -35 0
v -7 -35 0
v -8 -36 0
v -9 -36 0
v -9 -35 0
v -8 -35 0
v -9 -36 0
v -10 -36 0
v -10 -35 0
v -9 -35 0
v -10 -36 0
v -11 -36 0
v -11 -35 0
v -10 -35 0
v -16 -36 0
v -17 -36 0
v -17 -35 0
v -16 -35 0
v -17 -36 0
v -18 -36 0
v -18 -35 0
v -17 -35 0
v -18 -36 0
v -19 -36 0
v -19 -35 0
v -18 -35 0
v -19 -36 0
v -20 -36 0
v -20 -35 0
v -19 -35 0
v -25 -36 0
v -26 -36 0
v -26 -35 0
v -25 -35 0
v -26 -36 0
v -27 -36 0
v -27 -35 0
v -26 -35 0
v -27 -36 0
v -28 -36 0
v -28 -35 0
v -27 -35 0
v -28 -36 0
v -29 -36 0
v -29 -35 0
v -28 -35 0
v -34 -36 0
v -35 -36 0
v -35 -35 0
v -34 -35 0
v -35 -36 0
v -36 -36 0
v -36 -35 0
v -35 -35 0
v -36 -36 0
v -37 -36 0
v -37 -35 0
v -36 -35 0
v -37 -36 0
v -38 -36 0
v -38 -35 0
v -37 -35 0
v -43 -36 0
v -44 -36 0
v -44 -35 0
v -43 -35 0
v -44 -36 0
v -45 -36 0
v -45 -35 0
v -44 -35 0
v -45 -36 0
v -46 -36 0
v -46 -35 0
v -45 -35 0
v -46 -36 0
v -47 -36 0
v -47 -35 0
v -46 -35 0
v 0 -37 0
v -1 -37 0
v -1 -36 0
v 0 -36 0
v -1 -37 0
v -2 -37 0
v -2 -36 0
v -1 -36 0
v -7 -37 0
v -8 -37 0
v -8 -36 0
v -7 -36 0
v -8 -37 0
v -9 -37 0
v -9 -36 0
v -8 -36 0
v -9 -37 0
v -10 -37 0
v -10 -36 0
v -9 -36 0
v -10 -37 0
v -11 -37 0
v -11 -36 0
v -10 -36 0
v -16 -37 0
v -17 -37 0
v -17 -36 0
v -16 -36 0
v -17 -37 0
v -18 -37 0
v -18 -36 0
v -17 -36 0
v -18 -37 0
v -19 -37 0
v -19 -36 0
v -18 -36 0
v -19 -37 0
v -20 -37 0
v -20 -36 0
v -19 -36 0
v -25 -37 0
v -26 -37 0
v -26 -36 0
v -25 -36 0
v -26 -37 0
v -27 -37 0
v -27 -36 0
v -26 -36 0
v -27 -37 0
v -28 -37 0
v -28 -36 0
v -27 -36 0
v -28 -37 0
v -29 -37 0
v -29 -36 0
v -28 -36 0
v -34 -37 0
v -35 -37 0
v -35 -36 0
v -34 -36 0
v -35 -37 0
v -36 -37 0
v -36 -36 0
v -35 -36 0
v -36 -37 0
v -37 -37 0
v -37 -36 0
v -36 -36 0
v -37 -37 0
v -38 -37 0
v -38 -36 0
v -37 -36 0
v -43 -37 0
v -44 -37 0
v -44 -36 0
v -43 -36 0
v -44 -37 0
v -45 -37 0
v -45 -36 0
v -44 -36 0
v -45 -37 0
v -46 -37 0
v -46 -36 0
v -45 -36 0
v -46 -37 0
v -47 -37 0
v -47 -36 0
v -46 -36 0
v 0 -38 0
v -1 -38 0
v -1 -37 0
v 0 -37 0
v -1 -38 0
v -2 -38 0
v -2 -37 0
v -1 -37 0
v -7 -38 0
v -8 -38 0
v -8 -37 0
v -7 -37 0
v -8 -38 0
v -9 -38 0
v -9 -37 0
v -8 -37 0
v -9 -38 0
v -10 -38 0
v -10 -37 0
v -9 -37 0
v -10 -38 0
v -11 -38 0
v -11 -37 0
v -10 -37 0
v -16 -38 0
v -17 -38 0
v -17 -37 0
v -16 -37 0
v -17 -38 0
v -18 -38 0
v -18 -37 0
v -17 -37 0
v -18 -38 0
v -19 -38 0
v -19 -37 0
v -18 -37 0
v -19 -38 0
v -20 -38 0
v -20 -37 0
v -19 -37 0
v -25 -38 0
v -26 -38 0
v -26 -37 0
v -25 -37 0
v -26 -38 0
v -27 -38 0
v -27 -37 0
v -26 -37 0
v -27 -38 0
v -28 -38 0
v -28 -37 0
v -27 -37 0
v -28 -38 0
v -29 -38 0
v -29 -37 0
v -28 -37 0
v -34 -38 0
v -35 -38 0
v -35 -37 0
v -34 -37 0
v -35 -38 0
v -36 -38 0
v -36 -37 0
v -35 -37 0
v -36 -38 0
v -37 -38 0
v -37 -37 0
v -36 -37 0
v -37 -38 0
v -38 -38 0
v -38 -37 0
v -37 -37 0
v -43 -38 0
v -44 -38 0
v -44 -37 0
v -43 -37 0
v -44 -38 0
v -45 -38 0
v -45 -37 0
v -44 -37 0
v -45 -38 0
v -46 -38 0
v -46 -37 0
v -45 -37 0
v -46 -38 0
v -47 -38 0
v -47 -37 0
v -46 -37 0

# Texture cooridinates (Count = 42)
vt 0.546875 0.390625
vt 0.5625 0.390625
vt 0.5625 0.40625
vt 0.546875 0.40625
vt 0.578125 0.390625
vt 0.578125 0.40625
vt 0.296875 0.390625
vt 0.3125 0.390625
vt 0.3125 0.40625
vt 0.296875 0.40625
vt 0.46875 0.390625
vt 0.484375 0.390625
vt 0.484375 0.40625
vt 0.46875 0.40625
vt 0.5 0.390625
vt 0.5 0.40625
vt 0.515625 0.390625
vt 0.515625 0.40625
vt 0.53125 0.390625
vt 0.53125 0.40625
vt 0.359375 0.390625
vt 0.375 0.390625
vt 0.375 0.40625
vt 0.359375 0.40625
vt 0.59375 0.390625
vt 0.59375 0.40625
vt 0.609375 0.390625
vt 0.609375 0.40625
vt 0.296875 0.375
vt 0.3125 0.375
vt 0.46875 0.375
vt 0.484375 0.375
vt 0.5 0.375
vt 0.515625 0.375
vt 0.53125 0.375
vt 0.359375 0.375
vt 0.375 0.375
vt 0.546875 0.375
vt 0.5625 0.375
vt 0.578125 0.375
vt 0.59375 0.375
vt 0.609375 0.375

# Normal
vn 0 0 -1

# Mesh description
g fireMap_mesh_0001

# Faces
f 1/1/1 2/2/1 3/3/1 4/4/1
f 5/2/1 6/5/1 7/6/1 8/3/1
f 9/7/1 10/8/1 11/9/1 12/10/1
f 13/11/1 14/12/1 15/13/1 16/14/1
f 17/12/1 18/15/1 19/16/1 20/13/1
f 21/15/1 22/17/1 23/18/1 24/16/1
f 25/17/1 26/19/1 27/20/1 28/18/1
f 29/21/1 30/22/1 31/23/1 32/24/1
f 33/1/1 34/2/1 35/3/1 36/4/1
f 37/2/1 38/5/1 39/6/1 40/3/1
f 41/5/1 42/25/1 43/26/1 44/6/1
f 45/25/1 46/27/1 47/28/1 48/26/1
f 49/1/1 50/2/1 51/3/1 52/4/1
f 53/2/1 54/5/1 55/6/1 56/3/1
f 57/5/1 58/25/1 59/26/1 60/6/1
f 61/25/1 62/27/1 63/28/1 64/26/1
f 65/1/1 66/2/1 67/3/1 68/4/1
f 69/2/1 70/5/1 71/6/1 72/3/1
f 73/5/1 74/25/1 75/26/1 76/6/1
f 77/25/1 78/27/1 79/28/1 80/26/1
f 81/1/1 82/2/1 83/3/1 84/4/1
f 85/2/1 86/5/1 87/6/1 88/3/1
f 89/5/1 90/25/1 91/26/1 92/6/1
f 93/25/1 94/27/1 95/28/1 96/26/1
f 97/1/1 98/2/1 99/3/1 100/4/1
f 101/2/1 102/5/1 103/6/1 104/3/1
f 105/29/1 106/30/1 107/8/1 108/7/1
f 109/31/1 110/32/1 111/12/1 112/11/1
f 113/32/1 114/33/1 115/15/1 116/12/1
f 117/33/1 118/34/1 119/17/1 120/15/1
f 121/34/1 122/35/1 123/19/1 124/17/1
f 125/36/1 126/37/1 127/22/1 128/21/1
f 129/38/1 130/39/1 131/2/1 132/1/1
f 133/39/1 134/40/1 135/5/1 136/2/1
f 137/40/1 138/41/1 139/25/1 140/5/1
f 141/41/1 142/42/1 143/27/1 144/25/1
f 145/38/1 146/39/1 147/2/1 148/1/1
f 149/39/1 150/40/1 151/5/1 152/2/1
f 153/40/1 154/41/1 155/25/1 156/5/1
f 157/41/1 158/42/1 159/27/1 160/25/1
f 161/38/1 162/39/1 163/2/1 164/1/1
f 165/39/1 166/40/1 167/5/1 168/2/1
f 169/40/1 170/41/1 171/25/1 172/5/1
f 173/41/1 174/42/1 175/27/1 176/25/1
f 177/38/1 178/39/1 179/2/1 180/1/1
f 181/39/1 182/40/1 183/5/1 184/2/1
f 185/40/1 186/41/1 187/25/1 188/5/1
f 189/41/1 190/42/1 191/27/1 192/25/1
f 193/1/1 194/2/1 195/3/1 196/4/1
f 197/2/1 198/5/1 199/6/1 200/3/1
f 201/11/1 202/12/1 203/13/1 204/14/1
f 205/12/1 206/15/1 207/16/1 208/13/1
f 209/15/1 210/17/1 211/18/1 212/16/1
f 213/17/1 214/19/1 215/20/1 216/18/1
f 217/1/1 218/2/1 219/3/1 220/4/1
f 221/2/1 222/5/1 223/6/1 224/3/1
f 225/5/1 226/25/1 227/26/1 228/6/1
f 229/25/1 230/27/1 231/28/1 232/26/1
f 233/1/1 234/2/1 235/3/1 236/4/1
f 237/2/1 238/5/1 239/6/1 240/3/1
f 241/5/1 242/25/1 243/26/1 244/6/1
f 245/25/1 246/27/1 247/28/1 248/26/1
f 249/1/1 250/2/1 251/3/1 252/4/1
f 253/2/1 254/5/1 255/6/1 256/3/1
f 257/5/1 258/25/1 259/26/1 260/6/1
f 261/25/1 262/27/1 263/28/1 264/26/1
f 265/1/1 266/2/1 267/3/1 268/4/1
f 269/2/1 270/5/1 271/6/1 272/3/1
f 273/5/1 274/25/1 275/26/1 276/6/1
f 277/25/1 278/27/1 279/28/1 280/26/1
f 281/38/1 282/39/1 283/2/1 284/1/1
f 285/39/1 286/40/1 287/5/1 288/2/1
f 289/31/1 290/32/1 291/12/1 292/11/1
f 293/32/1 294/33/1 295/15/1 296/12/1
f 297/33/1 298/34/1 299/17/1 300/15/1
f 301/34/1 302/35/1 303/19/1 304/17/1
f 305/38/1 306/39/1 307/2/1 308/1/1
f 309/39/1 310/40/1 311/5/1 312/2/1
f 313/40/1 314/41/1 315/25/1 316/5/1
f 317/41/1 318/42/1 319/27/1 320/25/1
f 321/38/1 322/39/1 323/2/1 324/1/1
f 325/39/1 326/40/1 327/5/1 328/2/1
f 329/40/1 330/41/1 331/25/1 332/5/1
f 333/41/1 334/42/1 335/27/1 336/25/1
f 337/38/1 338/39/1 339/2/1 340/1/1
f 341/39/1 342/40/1 343/5/1 344/2/1
f 345/40/1 346/41/1 347/25/1 348/5/1
f 349/41/1 350/42/1 351/27/1 352/25/1
f 353/38/1 354/39/1 355/2/1 356/1/1
f 357/39/1 358/40/1 359/5/1 360/2/1
f 361/40/1 362/41/1 363/25/1 364/5/1
f 365/41/1 366/42/1 367/27/1 368/25/1
f 369/1/1 370/2/1 371/3/1 372/4/1
f 373/2/1 374/5/1 375/6/1 376/3/1
f 377/11/1 378/12/1 379/13/1 380/14/1
f 381/12/1 382/15/1 383/16/1 384/13/1
f 385/15/1 386/17/1 387/18/1 388/16/1
f 389/17/1 390/19/1 391/20/1 392/18/1
f 393/1/1 394/2/1 395/3/1 396/4/1
f 397/2/1 398/5/1 399/6/1 400/3/1
f 401/5/1 402/25/1 403/26/1 404/6/1
f 405/25/1 406/27/1 407/28/1 408/26/1
f 409/1/1 410/2/1 411/3/1 412/4/1
f 413/2/1 414/5/1 415/6/1 416/3/1
f 417/5/1 418/25/1 419/26/1 420/6/1
f 421/25/1 422/27/1 423/28/1 424/26/1
f 425/1/1 426/2/1 427/3/1 428/4/1
f 429/2/1 430/5/1 431/6/1 432/3/1
f 433/5/1 434/25/1 435/26/1 436/6/1
f 437/25/1 438/27/1 439/28/1 440/26/1
f 441/1/1 442/2/1 443/3/1 444/4/1
f 445/2/1 446/5/1 447/6/1 448/3/1
f 449/5/1 450/25/1 451/26/1 452/6/1
f 453/25/1 454/27/1 455/28/1 456/26/1
f 457/38/1 458/39/1 459/2/1 460/1/1
f 461/39/1 462/40/1 463/5/1 464/2/1
f 465/31/1 466/32/1 467/12/1 468/11/1
f 469/32/1 470/33/1 471/15/1 472/12/1
f 473/33/1 474/34/1 475/17/1 476/15/1
f 477/34/1 478/35/1 479/19/1 480/17/1
f 481/38/1 482/39/1 483/2/1 484/1/1
f 485/39/1 486/40/1 487/5/1 488/2/1
f 489/40/1 490/41/1 491/25/1 492/5/1
f 493/41/1 494/42/1 495/27/1 496/25/1
f 497/38/1 498/39/1 499/2/1 500/1/1
f 501/39/1 502/40/1 503/5/1 504/2/1
f 505/40/1 506/41/1 507/25/1 508/5/1
f 509/41/1 510/42/1 511/27/1 512/25/1
f 513/38/1 514/39/1 515/2/1 516/1/1
f 517/39/1 518/40/1 519/5/1 520/2/1
f 521/40/1 522/41/1 523/25/1 524/5/1
f 525/41/1 526/42/1 527/27/1 528/25/1
f 529/38/1 530/39/1 531/2/1 532/1/1
f 533/39/1 534/40/1 535/5/1 536/2/1
f 537/40/1 538/41/1 539/25/1 540/5/1
f 541/41/1 542/42/1 543/27/1 544/25/1

