# Tiled2Unity generated file. Do not modify by hand.
# Wavefront file for 'fireMap_mesh_0004.obj'

# Vertices (Count = 800)
v 0 -9 0
v -1 -9 0
v -1 -8 0
v 0 -8 0
v -1 -9 0
v -2 -9 0
v -2 -8 0
v -1 -8 0
v -2 -9 0
v -3 -9 0
v -3 -8 0
v -2 -8 0
v -3 -9 0
v -4 -9 0
v -4 -8 0
v -3 -8 0
v -4 -9 0
v -5 -9 0
v -5 -8 0
v -4 -8 0
v -5 -9 0
v -6 -9 0
v -6 -8 0
v -5 -8 0
v -6 -9 0
v -7 -9 0
v -7 -8 0
v -6 -8 0
v -7 -9 0
v -8 -9 0
v -8 -8 0
v -7 -8 0
v -8 -9 0
v -9 -9 0
v -9 -8 0
v -8 -8 0
v -9 -9 0
v -10 -9 0
v -10 -8 0
v -9 -8 0
v -10 -9 0
v -11 -9 0
v -11 -8 0
v -10 -8 0
v -11 -9 0
v -12 -9 0
v -12 -8 0
v -11 -8 0
v -12 -9 0
v -13 -9 0
v -13 -8 0
v -12 -8 0
v -13 -9 0
v -14 -9 0
v -14 -8 0
v -13 -8 0
v -14 -9 0
v -15 -9 0
v -15 -8 0
v -14 -8 0
v -15 -9 0
v -16 -9 0
v -16 -8 0
v -15 -8 0
v -16 -9 0
v -17 -9 0
v -17 -8 0
v -16 -8 0
v -17 -9 0
v -18 -9 0
v -18 -8 0
v -17 -8 0
v -18 -9 0
v -19 -9 0
v -19 -8 0
v -18 -8 0
v -19 -9 0
v -20 -9 0
v -20 -8 0
v -19 -8 0
v -20 -9 0
v -21 -9 0
v -21 -8 0
v -20 -8 0
v -21 -9 0
v -22 -9 0
v -22 -8 0
v -21 -8 0
v -22 -9 0
v -23 -9 0
v -23 -8 0
v -22 -8 0
v -23 -9 0
v -24 -9 0
v -24 -8 0
v -23 -8 0
v -24 -9 0
v -25 -9 0
v -25 -8 0
v -24 -8 0
v -25 -9 0
v -26 -9 0
v -26 -8 0
v -25 -8 0
v -26 -9 0
v -27 -9 0
v -27 -8 0
v -26 -8 0
v -27 -9 0
v -28 -9 0
v -28 -8 0
v -27 -8 0
v -28 -9 0
v -29 -9 0
v -29 -8 0
v -28 -8 0
v -29 -9 0
v -30 -9 0
v -30 -8 0
v -29 -8 0
v -30 -9 0
v -31 -9 0
v -31 -8 0
v -30 -8 0
v -31 -9 0
v -32 -9 0
v -32 -8 0
v -31 -8 0
v -32 -9 0
v -33 -9 0
v -33 -8 0
v -32 -8 0
v -33 -9 0
v -34 -9 0
v -34 -8 0
v -33 -8 0
v -34 -9 0
v -35 -9 0
v -35 -8 0
v -34 -8 0
v -35 -9 0
v -36 -9 0
v -36 -8 0
v -35 -8 0
v -36 -9 0
v -37 -9 0
v -37 -8 0
v -36 -8 0
v -37 -9 0
v -38 -9 0
v -38 -8 0
v -37 -8 0
v -38 -9 0
v -39 -9 0
v -39 -8 0
v -38 -8 0
v -39 -9 0
v -40 -9 0
v -40 -8 0
v -39 -8 0
v -40 -9 0
v -41 -9 0
v -41 -8 0
v -40 -8 0
v -41 -9 0
v -42 -9 0
v -42 -8 0
v -41 -8 0
v -42 -9 0
v -43 -9 0
v -43 -8 0
v -42 -8 0
v -43 -9 0
v -44 -9 0
v -44 -8 0
v -43 -8 0
v -44 -9 0
v -45 -9 0
v -45 -8 0
v -44 -8 0
v -45 -9 0
v -46 -9 0
v -46 -8 0
v -45 -8 0
v -46 -9 0
v -47 -9 0
v -47 -8 0
v -46 -8 0
v -47 -9 0
v -48 -9 0
v -48 -8 0
v -47 -8 0
v -48 -9 0
v -49 -9 0
v -49 -8 0
v -48 -8 0
v -49 -9 0
v -50 -9 0
v -50 -8 0
v -49 -8 0
v 0 -10 0
v -1 -10 0
v -1 -9 0
v 0 -9 0
v -1 -10 0
v -2 -10 0
v -2 -9 0
v -1 -9 0
v -2 -10 0
v -3 -10 0
v -3 -9 0
v -2 -9 0
v -3 -10 0
v -4 -10 0
v -4 -9 0
v -3 -9 0
v -4 -10 0
v -5 -10 0
v -5 -9 0
v -4 -9 0
v -5 -10 0
v -6 -10 0
v -6 -9 0
v -5 -9 0
v -6 -10 0
v -7 -10 0
v -7 -9 0
v -6 -9 0
v -7 -10 0
v -8 -10 0
v -8 -9 0
v -7 -9 0
v -8 -10 0
v -9 -10 0
v -9 -9 0
v -8 -9 0
v -9 -10 0
v -10 -10 0
v -10 -9 0
v -9 -9 0
v -10 -10 0
v -11 -10 0
v -11 -9 0
v -10 -9 0
v -11 -10 0
v -12 -10 0
v -12 -9 0
v -11 -9 0
v -12 -10 0
v -13 -10 0
v -13 -9 0
v -12 -9 0
v -13 -10 0
v -14 -10 0
v -14 -9 0
v -13 -9 0
v -14 -10 0
v -15 -10 0
v -15 -9 0
v -14 -9 0
v -15 -10 0
v -16 -10 0
v -16 -9 0
v -15 -9 0
v -16 -10 0
v -17 -10 0
v -17 -9 0
v -16 -9 0
v -17 -10 0
v -18 -10 0
v -18 -9 0
v -17 -9 0
v -18 -10 0
v -19 -10 0
v -19 -9 0
v -18 -9 0
v -19 -10 0
v -20 -10 0
v -20 -9 0
v -19 -9 0
v -20 -10 0
v -21 -10 0
v -21 -9 0
v -20 -9 0
v -21 -10 0
v -22 -10 0
v -22 -9 0
v -21 -9 0
v -22 -10 0
v -23 -10 0
v -23 -9 0
v -22 -9 0
v -23 -10 0
v -24 -10 0
v -24 -9 0
v -23 -9 0
v -24 -10 0
v -25 -10 0
v -25 -9 0
v -24 -9 0
v -25 -10 0
v -26 -10 0
v -26 -9 0
v -25 -9 0
v -26 -10 0
v -27 -10 0
v -27 -9 0
v -26 -9 0
v -27 -10 0
v -28 -10 0
v -28 -9 0
v -27 -9 0
v -28 -10 0
v -29 -10 0
v -29 -9 0
v -28 -9 0
v -29 -10 0
v -30 -10 0
v -30 -9 0
v -29 -9 0
v -30 -10 0
v -31 -10 0
v -31 -9 0
v -30 -9 0
v -31 -10 0
v -32 -10 0
v -32 -9 0
v -31 -9 0
v -32 -10 0
v -33 -10 0
v -33 -9 0
v -32 -9 0
v -33 -10 0
v -34 -10 0
v -34 -9 0
v -33 -9 0
v -34 -10 0
v -35 -10 0
v -35 -9 0
v -34 -9 0
v -35 -10 0
v -36 -10 0
v -36 -9 0
v -35 -9 0
v -36 -10 0
v -37 -10 0
v -37 -9 0
v -36 -9 0
v -37 -10 0
v -38 -10 0
v -38 -9 0
v -37 -9 0
v -38 -10 0
v -39 -10 0
v -39 -9 0
v -38 -9 0
v -39 -10 0
v -40 -10 0
v -40 -9 0
v -39 -9 0
v -40 -10 0
v -41 -10 0
v -41 -9 0
v -40 -9 0
v -41 -10 0
v -42 -10 0
v -42 -9 0
v -41 -9 0
v -42 -10 0
v -43 -10 0
v -43 -9 0
v -42 -9 0
v -43 -10 0
v -44 -10 0
v -44 -9 0
v -43 -9 0
v -44 -10 0
v -45 -10 0
v -45 -9 0
v -44 -9 0
v -45 -10 0
v -46 -10 0
v -46 -9 0
v -45 -9 0
v -46 -10 0
v -47 -10 0
v -47 -9 0
v -46 -9 0
v -47 -10 0
v -48 -10 0
v -48 -9 0
v -47 -9 0
v -48 -10 0
v -49 -10 0
v -49 -9 0
v -48 -9 0
v -49 -10 0
v -50 -10 0
v -50 -9 0
v -49 -9 0
v 0 -11 0
v -1 -11 0
v -1 -10 0
v 0 -10 0
v -1 -11 0
v -2 -11 0
v -2 -10 0
v -1 -10 0
v -2 -11 0
v -3 -11 0
v -3 -10 0
v -2 -10 0
v -3 -11 0
v -4 -11 0
v -4 -10 0
v -3 -10 0
v -4 -11 0
v -5 -11 0
v -5 -10 0
v -4 -10 0
v -5 -11 0
v -6 -11 0
v -6 -10 0
v -5 -10 0
v -6 -11 0
v -7 -11 0
v -7 -10 0
v -6 -10 0
v -7 -11 0
v -8 -11 0
v -8 -10 0
v -7 -10 0
v -8 -11 0
v -9 -11 0
v -9 -10 0
v -8 -10 0
v -9 -11 0
v -10 -11 0
v -10 -10 0
v -9 -10 0
v -10 -11 0
v -11 -11 0
v -11 -10 0
v -10 -10 0
v -11 -11 0
v -12 -11 0
v -12 -10 0
v -11 -10 0
v -12 -11 0
v -13 -11 0
v -13 -10 0
v -12 -10 0
v -13 -11 0
v -14 -11 0
v -14 -10 0
v -13 -10 0
v -14 -11 0
v -15 -11 0
v -15 -10 0
v -14 -10 0
v -15 -11 0
v -16 -11 0
v -16 -10 0
v -15 -10 0
v -16 -11 0
v -17 -11 0
v -17 -10 0
v -16 -10 0
v -17 -11 0
v -18 -11 0
v -18 -10 0
v -17 -10 0
v -18 -11 0
v -19 -11 0
v -19 -10 0
v -18 -10 0
v -19 -11 0
v -20 -11 0
v -20 -10 0
v -19 -10 0
v -20 -11 0
v -21 -11 0
v -21 -10 0
v -20 -10 0
v -21 -11 0
v -22 -11 0
v -22 -10 0
v -21 -10 0
v -22 -11 0
v -23 -11 0
v -23 -10 0
v -22 -10 0
v -23 -11 0
v -24 -11 0
v -24 -10 0
v -23 -10 0
v -24 -11 0
v -25 -11 0
v -25 -10 0
v -24 -10 0
v -25 -11 0
v -26 -11 0
v -26 -10 0
v -25 -10 0
v -26 -11 0
v -27 -11 0
v -27 -10 0
v -26 -10 0
v -27 -11 0
v -28 -11 0
v -28 -10 0
v -27 -10 0
v -28 -11 0
v -29 -11 0
v -29 -10 0
v -28 -10 0
v -29 -11 0
v -30 -11 0
v -30 -10 0
v -29 -10 0
v -30 -11 0
v -31 -11 0
v -31 -10 0
v -30 -10 0
v -31 -11 0
v -32 -11 0
v -32 -10 0
v -31 -10 0
v -32 -11 0
v -33 -11 0
v -33 -10 0
v -32 -10 0
v -33 -11 0
v -34 -11 0
v -34 -10 0
v -33 -10 0
v -34 -11 0
v -35 -11 0
v -35 -10 0
v -34 -10 0
v -35 -11 0
v -36 -11 0
v -36 -10 0
v -35 -10 0
v -36 -11 0
v -37 -11 0
v -37 -10 0
v -36 -10 0
v -37 -11 0
v -38 -11 0
v -38 -10 0
v -37 -10 0
v -38 -11 0
v -39 -11 0
v -39 -10 0
v -38 -10 0
v -39 -11 0
v -40 -11 0
v -40 -10 0
v -39 -10 0
v -40 -11 0
v -41 -11 0
v -41 -10 0
v -40 -10 0
v -41 -11 0
v -42 -11 0
v -42 -10 0
v -41 -10 0
v -42 -11 0
v -43 -11 0
v -43 -10 0
v -42 -10 0
v -43 -11 0
v -44 -11 0
v -44 -10 0
v -43 -10 0
v -44 -11 0
v -45 -11 0
v -45 -10 0
v -44 -10 0
v -45 -11 0
v -46 -11 0
v -46 -10 0
v -45 -10 0
v -46 -11 0
v -47 -11 0
v -47 -10 0
v -46 -10 0
v -47 -11 0
v -48 -11 0
v -48 -10 0
v -47 -10 0
v -48 -11 0
v -49 -11 0
v -49 -10 0
v -48 -10 0
v -49 -11 0
v -50 -11 0
v -50 -10 0
v -49 -10 0
v 0 -32 0
v -1 -32 0
v -1 -31 0
v 0 -31 0
v -1 -32 0
v -2 -32 0
v -2 -31 0
v -1 -31 0
v -2 -32 0
v -3 -32 0
v -3 -31 0
v -2 -31 0
v -3 -32 0
v -4 -32 0
v -4 -31 0
v -3 -31 0
v -4 -32 0
v -5 -32 0
v -5 -31 0
v -4 -31 0
v -5 -32 0
v -6 -32 0
v -6 -31 0
v -5 -31 0
v -6 -32 0
v -7 -32 0
v -7 -31 0
v -6 -31 0
v -7 -32 0
v -8 -32 0
v -8 -31 0
v -7 -31 0
v -8 -32 0
v -9 -32 0
v -9 -31 0
v -8 -31 0
v -9 -32 0
v -10 -32 0
v -10 -31 0
v -9 -31 0
v -10 -32 0
v -11 -32 0
v -11 -31 0
v -10 -31 0
v -11 -32 0
v -12 -32 0
v -12 -31 0
v -11 -31 0
v -12 -32 0
v -13 -32 0
v -13 -31 0
v -12 -31 0
v -13 -32 0
v -14 -32 0
v -14 -31 0
v -13 -31 0
v -14 -32 0
v -15 -32 0
v -15 -31 0
v -14 -31 0
v -15 -32 0
v -16 -32 0
v -16 -31 0
v -15 -31 0
v -16 -32 0
v -17 -32 0
v -17 -31 0
v -16 -31 0
v -17 -32 0
v -18 -32 0
v -18 -31 0
v -17 -31 0
v -18 -32 0
v -19 -32 0
v -19 -31 0
v -18 -31 0
v -19 -32 0
v -20 -32 0
v -20 -31 0
v -19 -31 0
v -20 -32 0
v -21 -32 0
v -21 -31 0
v -20 -31 0
v -21 -32 0
v -22 -32 0
v -22 -31 0
v -21 -31 0
v -22 -32 0
v -23 -32 0
v -23 -31 0
v -22 -31 0
v -23 -32 0
v -24 -32 0
v -24 -31 0
v -23 -31 0
v -24 -32 0
v -25 -32 0
v -25 -31 0
v -24 -31 0
v -25 -32 0
v -26 -32 0
v -26 -31 0
v -25 -31 0
v -26 -32 0
v -27 -32 0
v -27 -31 0
v -26 -31 0
v -27 -32 0
v -28 -32 0
v -28 -31 0
v -27 -31 0
v -28 -32 0
v -29 -32 0
v -29 -31 0
v -28 -31 0
v -29 -32 0
v -30 -32 0
v -30 -31 0
v -29 -31 0
v -30 -32 0
v -31 -32 0
v -31 -31 0
v -30 -31 0
v -31 -32 0
v -32 -32 0
v -32 -31 0
v -31 -31 0
v -32 -32 0
v -33 -32 0
v -33 -31 0
v -32 -31 0
v -33 -32 0
v -34 -32 0
v -34 -31 0
v -33 -31 0
v -34 -32 0
v -35 -32 0
v -35 -31 0
v -34 -31 0
v -35 -32 0
v -36 -32 0
v -36 -31 0
v -35 -31 0
v -36 -32 0
v -37 -32 0
v -37 -31 0
v -36 -31 0
v -37 -32 0
v -38 -32 0
v -38 -31 0
v -37 -31 0
v -38 -32 0
v -39 -32 0
v -39 -31 0
v -38 -31 0
v -39 -32 0
v -40 -32 0
v -40 -31 0
v -39 -31 0
v -40 -32 0
v -41 -32 0
v -41 -31 0
v -40 -31 0
v -41 -32 0
v -42 -32 0
v -42 -31 0
v -41 -31 0
v -42 -32 0
v -43 -32 0
v -43 -31 0
v -42 -31 0
v -43 -32 0
v -44 -32 0
v -44 -31 0
v -43 -31 0
v -44 -32 0
v -45 -32 0
v -45 -31 0
v -44 -31 0
v -45 -32 0
v -46 -32 0
v -46 -31 0
v -45 -31 0
v -46 -32 0
v -47 -32 0
v -47 -31 0
v -46 -31 0
v -47 -32 0
v -48 -32 0
v -48 -31 0
v -47 -31 0
v -48 -32 0
v -49 -32 0
v -49 -31 0
v -48 -31 0
v -49 -32 0
v -50 -32 0
v -50 -31 0
v -49 -31 0

# Texture cooridinates (Count = 27)
vt 0.015625 0.34375
vt 0.03125 0.34375
vt 0.03125 0.359375
vt 0.015625 0.359375
vt 0.046875 0.34375
vt 0.046875 0.359375
vt 0.0625 0.34375
vt 0.0625 0.359375
vt 0.078125 0.34375
vt 0.078125 0.359375
vt 0.09375 0.34375
vt 0.09375 0.359375
vt 0.109375 0.34375
vt 0.109375 0.359375
vt 0.015625 0.328125
vt 0.03125 0.328125
vt 0.046875 0.328125
vt 0.0625 0.328125
vt 0.078125 0.328125
vt 0.09375 0.328125
vt 0.109375 0.328125
vt 0.234375 0.875
vt 0.25 0.875
vt 0.25 0.890625
vt 0.234375 0.890625
vt 0.265625 0.875
vt 0.265625 0.890625

# Normal
vn 0 0 -1

# Mesh description
g fireMap_mesh_0004

# Faces
f 1/1/1 2/2/1 3/3/1 4/4/1
f 5/2/1 6/5/1 7/6/1 8/3/1
f 9/5/1 10/7/1 11/8/1 12/6/1
f 13/7/1 14/9/1 15/10/1 16/8/1
f 17/9/1 18/11/1 19/12/1 20/10/1
f 21/11/1 22/13/1 23/14/1 24/12/1
f 25/1/1 26/2/1 27/3/1 28/4/1
f 29/2/1 30/5/1 31/6/1 32/3/1
f 33/5/1 34/7/1 35/8/1 36/6/1
f 37/7/1 38/9/1 39/10/1 40/8/1
f 41/9/1 42/11/1 43/12/1 44/10/1
f 45/11/1 46/13/1 47/14/1 48/12/1
f 49/1/1 50/2/1 51/3/1 52/4/1
f 53/2/1 54/5/1 55/6/1 56/3/1
f 57/5/1 58/7/1 59/8/1 60/6/1
f 61/7/1 62/9/1 63/10/1 64/8/1
f 65/9/1 66/11/1 67/12/1 68/10/1
f 69/11/1 70/13/1 71/14/1 72/12/1
f 73/1/1 74/2/1 75/3/1 76/4/1
f 77/2/1 78/5/1 79/6/1 80/3/1
f 81/5/1 82/7/1 83/8/1 84/6/1
f 85/7/1 86/9/1 87/10/1 88/8/1
f 89/9/1 90/11/1 91/12/1 92/10/1
f 93/11/1 94/13/1 95/14/1 96/12/1
f 97/1/1 98/2/1 99/3/1 100/4/1
f 101/2/1 102/5/1 103/6/1 104/3/1
f 105/5/1 106/7/1 107/8/1 108/6/1
f 109/7/1 110/9/1 111/10/1 112/8/1
f 113/9/1 114/11/1 115/12/1 116/10/1
f 117/11/1 118/13/1 119/14/1 120/12/1
f 121/1/1 122/2/1 123/3/1 124/4/1
f 125/2/1 126/5/1 127/6/1 128/3/1
f 129/5/1 130/7/1 131/8/1 132/6/1
f 133/7/1 134/9/1 135/10/1 136/8/1
f 137/9/1 138/11/1 139/12/1 140/10/1
f 141/11/1 142/13/1 143/14/1 144/12/1
f 145/1/1 146/2/1 147/3/1 148/4/1
f 149/2/1 150/5/1 151/6/1 152/3/1
f 153/5/1 154/7/1 155/8/1 156/6/1
f 157/7/1 158/9/1 159/10/1 160/8/1
f 161/9/1 162/11/1 163/12/1 164/10/1
f 165/11/1 166/13/1 167/14/1 168/12/1
f 169/1/1 170/2/1 171/3/1 172/4/1
f 173/2/1 174/5/1 175/6/1 176/3/1
f 177/5/1 178/7/1 179/8/1 180/6/1
f 181/7/1 182/9/1 183/10/1 184/8/1
f 185/9/1 186/11/1 187/12/1 188/10/1
f 189/11/1 190/13/1 191/14/1 192/12/1
f 193/1/1 194/2/1 195/3/1 196/4/1
f 197/2/1 198/5/1 199/6/1 200/3/1
f 201/15/1 202/16/1 203/2/1 204/1/1
f 205/16/1 206/17/1 207/5/1 208/2/1
f 209/17/1 210/18/1 211/7/1 212/5/1
f 213/18/1 214/19/1 215/9/1 216/7/1
f 217/19/1 218/20/1 219/11/1 220/9/1
f 221/20/1 222/21/1 223/13/1 224/11/1
f 225/15/1 226/16/1 227/2/1 228/1/1
f 229/16/1 230/17/1 231/5/1 232/2/1
f 233/17/1 234/18/1 235/7/1 236/5/1
f 237/18/1 238/19/1 239/9/1 240/7/1
f 241/19/1 242/20/1 243/11/1 244/9/1
f 245/20/1 246/21/1 247/13/1 248/11/1
f 249/15/1 250/16/1 251/2/1 252/1/1
f 253/16/1 254/17/1 255/5/1 256/2/1
f 257/17/1 258/18/1 259/7/1 260/5/1
f 261/18/1 262/19/1 263/9/1 264/7/1
f 265/19/1 266/20/1 267/11/1 268/9/1
f 269/20/1 270/21/1 271/13/1 272/11/1
f 273/15/1 274/16/1 275/2/1 276/1/1
f 277/16/1 278/17/1 279/5/1 280/2/1
f 281/17/1 282/18/1 283/7/1 284/5/1
f 285/18/1 286/19/1 287/9/1 288/7/1
f 289/19/1 290/20/1 291/11/1 292/9/1
f 293/20/1 294/21/1 295/13/1 296/11/1
f 297/15/1 298/16/1 299/2/1 300/1/1
f 301/16/1 302/17/1 303/5/1 304/2/1
f 305/17/1 306/18/1 307/7/1 308/5/1
f 309/18/1 310/19/1 311/9/1 312/7/1
f 313/19/1 314/20/1 315/11/1 316/9/1
f 317/20/1 318/21/1 319/13/1 320/11/1
f 321/15/1 322/16/1 323/2/1 324/1/1
f 325/16/1 326/17/1 327/5/1 328/2/1
f 329/17/1 330/18/1 331/7/1 332/5/1
f 333/18/1 334/19/1 335/9/1 336/7/1
f 337/19/1 338/20/1 339/11/1 340/9/1
f 341/20/1 342/21/1 343/13/1 344/11/1
f 345/15/1 346/16/1 347/2/1 348/1/1
f 349/16/1 350/17/1 351/5/1 352/2/1
f 353/17/1 354/18/1 355/7/1 356/5/1
f 357/18/1 358/19/1 359/9/1 360/7/1
f 361/19/1 362/20/1 363/11/1 364/9/1
f 365/20/1 366/21/1 367/13/1 368/11/1
f 369/15/1 370/16/1 371/2/1 372/1/1
f 373/16/1 374/17/1 375/5/1 376/2/1
f 377/17/1 378/18/1 379/7/1 380/5/1
f 381/18/1 382/19/1 383/9/1 384/7/1
f 385/19/1 386/20/1 387/11/1 388/9/1
f 389/20/1 390/21/1 391/13/1 392/11/1
f 393/15/1 394/16/1 395/2/1 396/1/1
f 397/16/1 398/17/1 399/5/1 400/2/1
f 401/22/1 402/23/1 403/24/1 404/25/1
f 405/23/1 406/26/1 407/27/1 408/24/1
f 409/22/1 410/23/1 411/24/1 412/25/1
f 413/23/1 414/26/1 415/27/1 416/24/1
f 417/22/1 418/23/1 419/24/1 420/25/1
f 421/23/1 422/26/1 423/27/1 424/24/1
f 425/22/1 426/23/1 427/24/1 428/25/1
f 429/23/1 430/26/1 431/27/1 432/24/1
f 433/22/1 434/23/1 435/24/1 436/25/1
f 437/23/1 438/26/1 439/27/1 440/24/1
f 441/22/1 442/23/1 443/24/1 444/25/1
f 445/23/1 446/26/1 447/27/1 448/24/1
f 449/22/1 450/23/1 451/24/1 452/25/1
f 453/23/1 454/26/1 455/27/1 456/24/1
f 457/22/1 458/23/1 459/24/1 460/25/1
f 461/23/1 462/26/1 463/27/1 464/24/1
f 465/22/1 466/23/1 467/24/1 468/25/1
f 469/23/1 470/26/1 471/27/1 472/24/1
f 473/22/1 474/23/1 475/24/1 476/25/1
f 477/23/1 478/26/1 479/27/1 480/24/1
f 481/22/1 482/23/1 483/24/1 484/25/1
f 485/23/1 486/26/1 487/27/1 488/24/1
f 489/22/1 490/23/1 491/24/1 492/25/1
f 493/23/1 494/26/1 495/27/1 496/24/1
f 497/22/1 498/23/1 499/24/1 500/25/1
f 501/23/1 502/26/1 503/27/1 504/24/1
f 505/22/1 506/23/1 507/24/1 508/25/1
f 509/23/1 510/26/1 511/27/1 512/24/1
f 513/22/1 514/23/1 515/24/1 516/25/1
f 517/23/1 518/26/1 519/27/1 520/24/1
f 521/22/1 522/23/1 523/24/1 524/25/1
f 525/23/1 526/26/1 527/27/1 528/24/1
f 529/22/1 530/23/1 531/24/1 532/25/1
f 533/23/1 534/26/1 535/27/1 536/24/1
f 537/22/1 538/23/1 539/24/1 540/25/1
f 541/23/1 542/26/1 543/27/1 544/24/1
f 545/22/1 546/23/1 547/24/1 548/25/1
f 549/23/1 550/26/1 551/27/1 552/24/1
f 553/22/1 554/23/1 555/24/1 556/25/1
f 557/23/1 558/26/1 559/27/1 560/24/1
f 561/22/1 562/23/1 563/24/1 564/25/1
f 565/23/1 566/26/1 567/27/1 568/24/1
f 569/22/1 570/23/1 571/24/1 572/25/1
f 573/23/1 574/26/1 575/27/1 576/24/1
f 577/22/1 578/23/1 579/24/1 580/25/1
f 581/23/1 582/26/1 583/27/1 584/24/1
f 585/22/1 586/23/1 587/24/1 588/25/1
f 589/23/1 590/26/1 591/27/1 592/24/1
f 593/22/1 594/23/1 595/24/1 596/25/1
f 597/23/1 598/26/1 599/27/1 600/24/1
f 601/22/1 602/23/1 603/24/1 604/25/1
f 605/23/1 606/26/1 607/27/1 608/24/1
f 609/22/1 610/23/1 611/24/1 612/25/1
f 613/23/1 614/26/1 615/27/1 616/24/1
f 617/22/1 618/23/1 619/24/1 620/25/1
f 621/23/1 622/26/1 623/27/1 624/24/1
f 625/22/1 626/23/1 627/24/1 628/25/1
f 629/23/1 630/26/1 631/27/1 632/24/1
f 633/22/1 634/23/1 635/24/1 636/25/1
f 637/23/1 638/26/1 639/27/1 640/24/1
f 641/22/1 642/23/1 643/24/1 644/25/1
f 645/23/1 646/26/1 647/27/1 648/24/1
f 649/22/1 650/23/1 651/24/1 652/25/1
f 653/23/1 654/26/1 655/27/1 656/24/1
f 657/22/1 658/23/1 659/24/1 660/25/1
f 661/23/1 662/26/1 663/27/1 664/24/1
f 665/22/1 666/23/1 667/24/1 668/25/1
f 669/23/1 670/26/1 671/27/1 672/24/1
f 673/22/1 674/23/1 675/24/1 676/25/1
f 677/23/1 678/26/1 679/27/1 680/24/1
f 681/22/1 682/23/1 683/24/1 684/25/1
f 685/23/1 686/26/1 687/27/1 688/24/1
f 689/22/1 690/23/1 691/24/1 692/25/1
f 693/23/1 694/26/1 695/27/1 696/24/1
f 697/22/1 698/23/1 699/24/1 700/25/1
f 701/23/1 702/26/1 703/27/1 704/24/1
f 705/22/1 706/23/1 707/24/1 708/25/1
f 709/23/1 710/26/1 711/27/1 712/24/1
f 713/22/1 714/23/1 715/24/1 716/25/1
f 717/23/1 718/26/1 719/27/1 720/24/1
f 721/22/1 722/23/1 723/24/1 724/25/1
f 725/23/1 726/26/1 727/27/1 728/24/1
f 729/22/1 730/23/1 731/24/1 732/25/1
f 733/23/1 734/26/1 735/27/1 736/24/1
f 737/22/1 738/23/1 739/24/1 740/25/1
f 741/23/1 742/26/1 743/27/1 744/24/1
f 745/22/1 746/23/1 747/24/1 748/25/1
f 749/23/1 750/26/1 751/27/1 752/24/1
f 753/22/1 754/23/1 755/24/1 756/25/1
f 757/23/1 758/26/1 759/27/1 760/24/1
f 761/22/1 762/23/1 763/24/1 764/25/1
f 765/23/1 766/26/1 767/27/1 768/24/1
f 769/22/1 770/23/1 771/24/1 772/25/1
f 773/23/1 774/26/1 775/27/1 776/24/1
f 777/22/1 778/23/1 779/24/1 780/25/1
f 781/23/1 782/26/1 783/27/1 784/24/1
f 785/22/1 786/23/1 787/24/1 788/25/1
f 789/23/1 790/26/1 791/27/1 792/24/1
f 793/22/1 794/23/1 795/24/1 796/25/1
f 797/23/1 798/26/1 799/27/1 800/24/1

